<svg width="8" height="13" viewBox="0 0 8 13" fill="none" xmlns="http://www.w3.org/2000/svg">
<path d="M2.646 12.946C2.226 12.946 1.82933 12.8527 1.456 12.666C1.08267 12.4793 0.779333 12.2227 0.546 11.896C0.322 11.5693 0.21 11.2007 0.21 10.79L0.378 10.706C0.816667 11.0327 1.25533 11.196 1.694 11.196C1.946 11.196 2.184 11.126 2.408 10.986C2.632 10.846 2.828 10.5987 2.996 10.244C3.17333 9.88933 3.30867 9.39933 3.402 8.774C3.50467 8.14867 3.556 7.346 3.556 6.366C3.556 5.53533 3.60733 4.84467 3.71 4.294C3.822 3.74333 4.046 3.23933 4.382 2.782C4.26067 2.698 4.116 2.62333 3.948 2.558C3.78933 2.48333 3.62133 2.446 3.444 2.446C3.14533 2.446 2.898 2.558 2.702 2.782C2.51533 2.99667 2.422 3.272 2.422 3.608C2.422 3.78533 2.45 3.972 2.506 4.168C2.57133 4.364 2.66933 4.56 2.8 4.756C2.24 4.756 1.77333 4.658 1.4 4.462C1.036 4.25667 0.760667 4 0.574 3.692C0.396667 3.384 0.308 3.062 0.308 2.726C0.308 2.39 0.387333 2.07267 0.546 1.774C0.714 1.47533 0.961333 1.23267 1.288 1.046C1.61467 0.849999 2.01133 0.751999 2.478 0.751999C2.842 0.751999 3.248 0.826666 3.696 0.976C4.144 1.116 4.634 1.354 5.166 1.69C5.49267 1.30733 5.78667 1.06933 6.048 0.976C6.30933 0.882666 6.51467 0.836 6.664 0.836C7.04667 0.836 7.32667 0.966666 7.504 1.228C7.68133 1.48 7.77 1.78333 7.77 2.138C7.77 2.37133 7.72333 2.6 7.63 2.824C7.546 3.048 7.41067 3.23467 7.224 3.384C7.03733 3.524 6.79467 3.594 6.496 3.594C6.40267 3.594 6.3 3.58467 6.188 3.566C6.08533 3.54733 5.96867 3.51467 5.838 3.468C5.77267 3.636 5.726 3.832 5.698 4.056C5.67 4.28 5.656 4.52267 5.656 4.784C5.656 5.29733 5.684 5.848 5.74 6.436C5.796 7.01467 5.824 7.584 5.824 8.144C5.824 9.02133 5.73067 9.768 5.544 10.384C5.35733 10.9907 5.11 11.4807 4.802 11.854C4.494 12.2367 4.15333 12.512 3.78 12.68C3.40667 12.8573 3.02867 12.946 2.646 12.946Z" fill="black"/>
</svg>
